<svg xmlns="http://www.w3.org/2000/svg" viewBox="0 0 576 512" fill="currentColor"><path d="M407.8 294.7c-3.3-.4-6.7-.8-10-1.3c3.4.4 6.7.9 10 1.3zM288 227.1C261.9 176.4 190.9 81.9 124.9 35.3C61.6-9.4 37.5-1.7 21.6 5.5C3.3 13.8 0 41.9 0 58.4S9.1 194 15 213.9c19.5 65.7 89.1 87.9 153.2 80.7c3.3-.5 6.6-.9 10-1.4c-3.3.5-6.6 1-10 1.4C86.2 308.6 25.9 379.5 23 437.1C17.8 543 106 588.5 288 454.1c182 134.4 270.2 88.9 265-17c-2.9-57.7-63.2-128.6-145.2-142.6c-3.3-.4-6.7-.8-10-1.3c3.4.4 6.7.9 10 1.3c64.1 7.1 133.7-15.1 153.2-80.7C566.9 194 576 116.9 576 58.4s-3.3-44.7-21.6-52.9c-15.8-7.1-40-14.9-103.2 29.8C385.1 81.9 314.1 176.4 288 227.1z"/></svg>
